<svg xmlns="http://www.w3.org/2000/svg" xmlns:xlink="http://www.w3.org/1999/xlink" width="300" zoomAndPan="magnify" viewBox="0 0 224.87999 225" height="300" preserveAspectRatio="xMidYMid meet" version="1.0"><defs><g/><clipPath id="2719028dda"><path d="M 0 0.0585938 L 224.761719 0.0585938 L 224.761719 224.9375 L 0 224.9375 Z M 0 0.0585938 " clip-rule="nonzero"/></clipPath><clipPath id="105fab44ff"><path d="M 112.441406 0.0585938 C 50.339844 0.0585938 0 50.402344 0 112.5 C 0 174.597656 50.339844 224.941406 112.441406 224.941406 C 174.539062 224.941406 224.878906 174.597656 224.878906 112.5 C 224.878906 50.402344 174.539062 0.0585938 112.441406 0.0585938 Z M 112.441406 0.0585938 " clip-rule="nonzero"/></clipPath><clipPath id="e5a6d6d2f4"><path d="M 11.09375 11.152344 L 213.785156 11.152344 L 213.785156 213.847656 L 11.09375 213.847656 Z M 11.09375 11.152344 " clip-rule="nonzero"/></clipPath><clipPath id="4d1c564ff4"><path d="M 112.441406 11.152344 C 56.46875 11.152344 11.09375 56.527344 11.09375 112.5 C 11.09375 168.472656 56.46875 213.847656 112.441406 213.847656 C 168.410156 213.847656 213.785156 168.472656 213.785156 112.5 C 213.785156 56.527344 168.410156 11.152344 112.441406 11.152344 Z M 112.441406 11.152344 " clip-rule="nonzero"/></clipPath></defs><g clip-path="url(#2719028dda)"><g clip-path="url(#105fab44ff)"><path fill="#00bf63" d="M 0 0.0585938 L 224.878906 0.0585938 L 224.878906 224.941406 L 0 224.941406 Z M 0 0.0585938 " fill-opacity="1" fill-rule="nonzero"/></g></g><g clip-path="url(#e5a6d6d2f4)"><g clip-path="url(#4d1c564ff4)"><path fill="#ffffff" d="M 11.09375 11.152344 L 213.785156 11.152344 L 213.785156 213.847656 L 11.09375 213.847656 Z M 11.09375 11.152344 " fill-opacity="1" fill-rule="nonzero"/></g></g><g fill="#00bf63" fill-opacity="1"><g transform="translate(22.487998, 176.9656)"><g><path d="M 31.296875 -53.96875 C 24.640625 -33.46875 16.546875 -15.109375 6.65625 1.265625 L 28.78125 15.296875 C 33.640625 7.375 38.5 -2.15625 43 -13.140625 C 47.859375 -24.28125 51.453125 -34.90625 54.15625 -45.34375 Z M 46.78125 -57.203125 C 48.03125 -57.390625 50.015625 -57.9375 53.25 -58.65625 L 60.625 -60.265625 L 60.625 -46.59375 C 60.625 -25.734375 55.234375 -11.328125 41.921875 2.515625 L 65.484375 17.8125 C 73.40625 9 78.796875 -0.359375 82.21875 -10.4375 L 131.875 -10.4375 L 131.875 14.578125 L 159.03125 14.578125 L 159.03125 -60.265625 C 161.734375 -59.734375 165.515625 -58.828125 171.09375 -57.9375 L 176.3125 -80.0625 C 161.015625 -82.9375 147.15625 -86 135.296875 -89.046875 C 145.90625 -96.0625 154.90625 -103.625 162.453125 -112.078125 L 171.453125 -112.078125 L 171.453125 -134.203125 L 123.0625 -134.203125 L 123.0625 -149.140625 L 94.8125 -149.140625 L 94.8125 -134.203125 L 49.109375 -134.203125 L 49.109375 -128.265625 C 41.375 -134.5625 34 -140.140625 27.34375 -144.828125 L 11.875 -126.46875 C 24.640625 -116.9375 34.546875 -109.015625 41.5625 -102.546875 L 49.46875 -112.078125 L 71.0625 -112.078125 L 57.75 -103.265625 C 64.765625 -97.328125 71.78125 -92.65625 78.625 -88.515625 C 68.71875 -86 59.1875 -83.46875 49.828125 -81.5 C 39.40625 -90.671875 29.140625 -98.765625 18.890625 -105.96875 L 3.59375 -87.609375 C 15.296875 -78.984375 26.265625 -69.984375 36.515625 -60.453125 L 44.25 -69.984375 Z M 86.53125 -31.296875 C 86.71875 -34 87.078125 -37.421875 87.25 -42.28125 L 131.875 -42.28125 L 131.875 -31.296875 Z M 87.25 -67.46875 C 94.453125 -69.796875 101.28125 -72.140625 107.40625 -74.84375 C 114.421875 -72.140625 122.515625 -69.625 131.875 -66.921875 L 131.875 -62.96875 L 87.25 -62.96875 Z M 107.40625 -98.765625 C 99.3125 -102.546875 92.296875 -106.859375 86 -112.078125 L 128.09375 -112.078125 C 122.515625 -107.046875 115.6875 -102.71875 107.40625 -98.765625 Z M 107.40625 -98.765625 "/></g></g></g></svg>