<svg xmlns="http://www.w3.org/2000/svg" xmlns:xlink="http://www.w3.org/1999/xlink" width="300" zoomAndPan="magnify" viewBox="0 0 224.87999 225" height="300" preserveAspectRatio="xMidYMid meet" version="1.0"><defs><g/><clipPath id="c194aefc9d"><path d="M 10.421875 10.480469 L 214.457031 10.480469 L 214.457031 214.519531 L 10.421875 214.519531 Z M 10.421875 10.480469 " clip-rule="nonzero"/></clipPath><clipPath id="b3f06a1a72"><path d="M 112.441406 10.480469 C 56.097656 10.480469 10.421875 56.15625 10.421875 112.5 C 10.421875 168.84375 56.097656 214.519531 112.441406 214.519531 C 168.78125 214.519531 214.457031 168.84375 214.457031 112.5 C 214.457031 56.15625 168.78125 10.480469 112.441406 10.480469 Z M 112.441406 10.480469 " clip-rule="nonzero"/></clipPath><clipPath id="9d0fb9ef23"><path d="M 31.832031 31.894531 L 193.046875 31.894531 L 193.046875 193.105469 L 31.832031 193.105469 Z M 31.832031 31.894531 " clip-rule="nonzero"/></clipPath><clipPath id="2c2e6dd177"><path d="M 112.441406 31.894531 C 67.921875 31.894531 31.832031 67.980469 31.832031 112.5 C 31.832031 157.019531 67.921875 193.105469 112.441406 193.105469 C 156.957031 193.105469 193.046875 157.019531 193.046875 112.5 C 193.046875 67.980469 156.957031 31.894531 112.441406 31.894531 Z M 112.441406 31.894531 " clip-rule="nonzero"/></clipPath></defs><g clip-path="url(#c194aefc9d)"><g clip-path="url(#b3f06a1a72)"><path fill="#00bf63" d="M 10.421875 10.480469 L 214.457031 10.480469 L 214.457031 214.519531 L 10.421875 214.519531 Z M 10.421875 10.480469 " fill-opacity="1" fill-rule="nonzero"/></g></g><g clip-path="url(#9d0fb9ef23)"><g clip-path="url(#2c2e6dd177)"><path fill="#ffffff" d="M 31.832031 31.894531 L 193.046875 31.894531 L 193.046875 193.105469 L 31.832031 193.105469 Z M 31.832031 31.894531 " fill-opacity="1" fill-rule="nonzero"/></g></g><g fill="#00bf63" fill-opacity="1"><g transform="translate(42.346541, 162.300781)"><g><path d="M 24.390625 -42.0625 C 19.203125 -26.078125 12.890625 -11.78125 5.1875 0.984375 L 22.4375 11.921875 C 26.21875 5.75 30 -1.6875 33.5 -10.234375 C 37.296875 -18.921875 40.09375 -27.203125 42.203125 -35.328125 Z M 36.453125 -44.578125 C 37.4375 -44.71875 38.96875 -45.140625 41.5 -45.703125 L 47.25 -46.96875 L 47.25 -36.3125 C 47.25 -20.046875 43.03125 -8.828125 32.65625 1.96875 L 51.03125 13.875 C 57.203125 7.015625 61.40625 -0.28125 64.0625 -8.125 L 102.75 -8.125 L 102.75 11.359375 L 123.921875 11.359375 L 123.921875 -46.96875 C 126.03125 -46.546875 128.96875 -45.84375 133.3125 -45.140625 L 137.390625 -62.390625 C 125.46875 -64.625 114.671875 -67.015625 105.421875 -69.390625 C 113.6875 -74.859375 120.703125 -80.75 126.59375 -87.34375 L 133.59375 -87.34375 L 133.59375 -104.578125 L 95.890625 -104.578125 L 95.890625 -116.21875 L 73.875 -116.21875 L 73.875 -104.578125 L 38.265625 -104.578125 L 38.265625 -99.953125 C 32.25 -104.859375 26.5 -109.203125 21.3125 -112.84375 L 9.25 -98.546875 C 19.203125 -91.125 26.921875 -84.953125 32.390625 -79.90625 L 38.546875 -87.34375 L 55.375 -87.34375 L 45 -80.46875 C 50.46875 -75.84375 55.9375 -72.203125 61.265625 -68.96875 C 53.546875 -67.015625 46.125 -65.046875 38.828125 -63.5 C 30.703125 -70.65625 22.703125 -76.96875 14.71875 -82.578125 L 2.796875 -68.265625 C 11.921875 -61.546875 20.46875 -54.53125 28.453125 -47.109375 L 34.484375 -54.53125 Z M 67.4375 -24.390625 C 67.578125 -26.5 67.84375 -29.15625 67.984375 -32.9375 L 102.75 -32.9375 L 102.75 -24.390625 Z M 67.984375 -52.578125 C 73.59375 -54.390625 78.921875 -56.21875 83.6875 -58.3125 C 89.15625 -56.21875 95.46875 -54.25 102.75 -52.15625 L 102.75 -49.0625 L 67.984375 -49.0625 Z M 83.6875 -76.96875 C 77.390625 -79.90625 71.921875 -83.265625 67.015625 -87.34375 L 99.8125 -87.34375 C 95.46875 -83.40625 90.140625 -80.046875 83.6875 -76.96875 Z M 83.6875 -76.96875 "/></g></g></g></svg>